<svg width="250" height="250" viewBox="0 0 250 250" fill="none" xmlns="http://www.w3.org/2000/svg">
<path fill-rule="evenodd" clip-rule="evenodd" d="M241.89 130.109L237.894 129.937C237.964 128.3 238 126.654 238 125C238 123.346 237.964 121.7 237.894 120.063L241.89 119.891C241.963 121.585 242 123.288 242 125C242 126.712 241.963 128.415 241.89 130.109ZM241.011 109.719L237.045 110.236C236.616 106.953 236.047 103.715 235.344 100.528L239.25 99.6656C239.978 102.966 240.568 106.32 241.011 109.719ZM236.614 89.8067C235.587 86.5451 234.42 83.3452 233.122 80.2138L229.427 81.746C230.681 84.7696 231.807 87.8593 232.799 91.0085L236.614 89.8067ZM228.802 70.9643L225.255 72.8143C223.731 69.8928 222.083 67.0461 220.318 64.2812L223.69 62.1288C225.517 64.9915 227.224 67.9391 228.802 70.9643ZM217.828 53.7723L214.656 56.2096C212.651 53.6004 210.535 51.0812 208.314 48.6591L211.262 45.9559C213.561 48.4633 215.752 51.0712 217.828 53.7723ZM204.044 38.7376L201.341 41.686C198.919 39.4653 196.4 37.3489 193.79 35.3439L196.228 32.1723C198.929 34.2479 201.537 36.4388 204.044 38.7376ZM187.871 26.3104L185.719 29.6819C182.954 27.9168 180.107 26.2688 177.186 24.7449L179.036 21.1984C182.061 22.7764 185.008 24.4828 187.871 26.3104ZM169.786 16.878L168.254 20.5729C165.23 19.3191 162.141 18.1928 158.991 17.2008L160.193 13.3856C163.455 14.413 166.655 15.5795 169.786 16.878ZM150.334 10.7502L149.472 14.6562C146.285 13.9526 143.047 13.3835 139.764 12.9553L140.281 8.98891C143.68 9.43229 147.033 10.0216 150.334 10.7502ZM130.109 8.10952L129.937 12.1058C128.3 12.0355 126.654 12 125 12C123.346 12 121.7 12.0355 120.063 12.1058L119.891 8.10953C121.585 8.03676 123.288 8 125 8C126.712 8 128.415 8.03676 130.109 8.10952ZM109.719 8.98892L110.236 12.9553C106.953 13.3835 103.715 13.9526 100.528 14.6562L99.6656 10.7502C102.966 10.0216 106.32 9.4323 109.719 8.98892ZM89.8067 13.3856L91.0085 17.2008C87.8593 18.1928 84.7696 19.3191 81.746 20.5729L80.2138 16.878C83.3452 15.5795 86.5451 14.4131 89.8067 13.3856ZM70.9643 21.1984L72.8143 24.7449C69.8928 26.2688 67.0461 27.9168 64.2812 29.6819L62.1288 26.3104C64.9915 24.4828 67.9391 22.7764 70.9643 21.1984ZM53.7723 32.1723L56.2096 35.3439C53.6004 37.349 51.0812 39.4653 48.6591 41.686L45.9559 38.7376C48.4633 36.4388 51.0712 34.2479 53.7723 32.1723ZM38.7376 45.9559L41.686 48.6591C39.4653 51.0812 37.3489 53.6005 35.3439 56.2096L32.1723 53.7723C34.2479 51.0712 36.4388 48.4633 38.7376 45.9559ZM26.3104 62.1288L29.6819 64.2812C27.9168 67.0462 26.2688 69.8929 24.7449 72.8143L21.1984 70.9643C22.7764 67.9392 24.4828 64.9916 26.3104 62.1288ZM16.878 80.2139C15.5795 83.3452 14.413 86.5451 13.3856 89.8067L17.2008 91.0086C18.1928 87.8594 19.3191 84.7696 20.5729 81.7461L16.878 80.2139ZM10.7502 99.6656L14.6562 100.528C13.9526 103.715 13.3835 106.953 12.9553 110.236L8.98891 109.719C9.43229 106.32 10.0216 102.966 10.7502 99.6656ZM8.10952 119.891C8.03676 121.585 8 123.288 8 125C8 126.712 8.03676 128.415 8.10953 130.109L12.1058 129.937C12.0355 128.3 12 126.654 12 125C12 123.346 12.0355 121.7 12.1058 120.063L8.10952 119.891ZM8.98892 140.281L12.9553 139.764C13.3835 143.047 13.9526 146.285 14.6562 149.472L10.7502 150.334C10.0216 147.034 9.4323 143.68 8.98892 140.281ZM13.3856 160.193L17.2008 158.991C18.1928 162.141 19.3191 165.23 20.5729 168.254L16.878 169.786C15.5795 166.655 14.4131 163.455 13.3856 160.193ZM21.1984 179.036L24.7449 177.186C26.2688 180.107 27.9168 182.954 29.6819 185.719L26.3104 187.871C24.4828 185.008 22.7764 182.061 21.1984 179.036ZM32.1723 196.228L35.3439 193.79C37.349 196.4 39.4653 198.919 41.686 201.341L38.7376 204.044C36.4388 201.537 34.2479 198.929 32.1723 196.228ZM45.9559 211.262L48.6591 208.314C51.0812 210.535 53.6005 212.651 56.2096 214.656L53.7723 217.828C51.0712 215.752 48.4633 213.561 45.9559 211.262ZM62.1288 223.69L64.2812 220.318C67.0462 222.083 69.8929 223.731 72.8143 225.255L70.9643 228.802C67.9392 227.224 64.9916 225.517 62.1288 223.69ZM80.2139 233.122L81.7461 229.427C84.7696 230.681 87.8594 231.807 91.0086 232.799L89.8067 236.614C86.5451 235.587 83.3452 234.421 80.2139 233.122ZM99.6656 239.25L100.528 235.344C103.715 236.047 106.953 236.616 110.236 237.045L109.719 241.011C106.32 240.568 102.967 239.978 99.6656 239.25ZM119.891 241.89L120.063 237.894C121.7 237.964 123.346 238 125 238C126.654 238 128.3 237.964 129.937 237.894L130.109 241.89C128.415 241.963 126.712 242 125 242C123.288 242 121.585 241.963 119.891 241.89ZM140.281 241.011L139.764 237.045C143.047 236.616 146.285 236.047 149.472 235.344L150.334 239.25C147.034 239.978 143.68 240.568 140.281 241.011ZM160.193 236.614C163.455 235.587 166.655 234.42 169.786 233.122L168.254 229.427C165.23 230.681 162.141 231.807 158.991 232.799L160.193 236.614ZM179.036 228.802L177.186 225.255C180.107 223.731 182.954 222.083 185.719 220.318L187.871 223.69C185.008 225.517 182.061 227.224 179.036 228.802ZM196.228 217.828L193.79 214.656C196.4 212.651 198.919 210.535 201.341 208.314L204.044 211.262C201.537 213.561 198.929 215.752 196.228 217.828ZM211.262 204.044L208.314 201.341C210.535 198.919 212.651 196.4 214.656 193.79L217.828 196.228C215.752 198.929 213.561 201.537 211.262 204.044ZM223.69 187.871L220.318 185.719C222.083 182.954 223.731 180.107 225.255 177.186L228.802 179.036C227.224 182.061 225.517 185.008 223.69 187.871ZM233.122 169.786L229.427 168.254C230.681 165.23 231.807 162.141 232.799 158.991L236.614 160.193C235.587 163.455 234.421 166.655 233.122 169.786ZM239.25 150.334L235.344 149.472C236.047 146.285 236.616 143.047 237.045 139.764L241.011 140.281C240.568 143.68 239.978 147.033 239.25 150.334Z" />
<path fill-rule="evenodd" clip-rule="evenodd" d="M173.539 196.99C167.655 196.717 164.443 195.387 162.82 194.261C162.347 193.954 162.651 193.204 163.226 193.306C164.342 193.511 165.796 193.579 167.047 193.17C167.216 193.102 170.191 191.737 159.946 189.623C151.155 187.849 137.088 180.14 133.132 177.65C133.11 177.65 133.098 177.65 133.098 177.65C130.235 175.763 127.339 173.739 124.408 171.579C124.374 171.579 124.341 171.579 124.307 171.579L85.6921 194.091C85.647 194.091 85.6019 194.091 85.5568 194.091C61.0422 179.663 45.7247 153.024 45.5557 124.372C45.5557 124.327 45.5669 124.293 45.5895 124.27L65.5731 112.639C65.6408 112.605 65.6408 112.537 65.6069 112.468C63.781 108.921 59.1824 99.7799 55.4968 90.1271C51.473 79.6216 50.5938 73.5502 51.9464 67.5812C52.0816 67.0354 52.8931 67.1036 52.9608 67.6835C53.5356 74.0277 56.7817 71.6401 56.3421 67.9223C54.9558 56.1888 65.1674 54.381 65.1674 54.381C70.6451 52.7097 93.6044 55.95 111.931 75.9719C111.931 75.9947 111.942 76.006 111.965 76.006C112.235 76.313 111.83 76.7223 111.525 76.4495C99.3864 66.1486 83.3589 60.7594 75.7509 61.6803C75.7059 61.6803 75.6608 61.6803 75.6157 61.6803C73.0797 62.0214 70.9833 62.9424 69.4279 64.4773C63.1048 70.8556 67.3991 86.4092 79.0646 104.657C79.0985 104.692 79.1661 104.726 79.1999 104.692L80.9244 103.702C88.1266 99.507 90.595 99.2683 94.1792 99.507C97.7296 99.7458 105.743 102.577 110.883 104.385C115.042 105.885 119.235 102.645 119.843 99.1659C120.215 97.0853 121.23 89.9225 122.109 85.0449C122.988 80.3379 125.828 77.7115 130.19 75.0169L150.005 63.454C150.039 63.454 150.073 63.454 150.106 63.4881L152.575 65.3641C152.609 65.3982 152.676 65.3982 152.71 65.3641C153.42 64.9207 159.946 60.8958 162.753 59.4974C162.82 59.4633 162.888 59.5315 162.888 59.5997C162.922 66.1827 161.603 71.1967 161.434 71.8107C161.411 71.8561 161.423 71.8902 161.468 71.913L164.037 74.1642C164.071 74.2324 164.071 74.3006 164.037 74.3347C163.598 74.8122 161.434 77.1999 160.487 78.4278C160.386 78.5301 160.521 78.6665 160.622 78.5983C164.071 76.6541 168.737 75.5626 171.882 76.1766C171.95 76.2107 171.984 76.2789 171.95 76.3471C170.969 77.9844 169.955 79.5875 169.65 80.0309C169.617 80.0991 169.65 80.1673 169.718 80.2014C170.766 80.5766 178.138 83.0666 194.03 82.5208C194.097 82.5208 194.165 82.5891 194.131 82.6573C191.359 89.6155 185.205 98.7908 184.325 100.087C184.292 100.155 184.325 100.257 184.427 100.257C185.441 100.36 190.412 100.94 193.049 101.656C193.117 101.69 193.151 101.792 193.117 101.826C190.885 104.282 186.354 109.501 184.799 111.343C184.765 111.411 184.799 111.513 184.9 111.547C187.233 111.752 188.248 111.411 188.518 111.275C188.586 111.275 188.654 111.275 188.687 111.343C188.89 111.854 189.803 113.935 189.803 115.027C189.803 115.072 189.814 115.106 189.837 115.129C192.474 116.493 201.435 120.996 202.618 121.61C202.652 121.61 202.686 121.712 202.652 121.78C201.875 122.735 196.025 129.796 185.002 136.242L183.582 137.061C182.702 137.573 182.128 138.596 182.736 140.131C183.345 141.666 186.828 145.69 190.987 148.214C191.46 148.521 191.19 149.272 190.649 149.17C189.093 148.965 187.436 148.658 186.185 148.419C186.118 148.385 186.05 148.487 186.084 148.556C205.459 189.009 181.857 197.331 173.539 196.99ZM182.669 181.061C183.953 179.765 184.934 178.23 185.678 176.491C185.948 175.945 186.185 175.263 186.388 174.444C187.064 171.92 187.267 169.089 187.031 165.951C186.726 160.664 185.238 155.753 183.751 152.035C183.582 151.659 183.007 151.864 183.142 152.273C183.92 154.763 184.731 157.799 185.306 161.21C186.489 168.236 185.036 172.909 182.804 175.604C182.759 175.649 182.725 175.695 182.702 175.74C174.283 184.609 153.893 179.526 131.644 164.723C123.428 159.232 114.974 152.444 106.758 144.531C93.6044 131.842 83.2913 118.335 76.7315 106.124C76.2581 105.26 75.8073 104.396 75.379 103.532C75.1423 103.123 74.5337 103.395 74.7027 103.839C75.0634 104.771 75.4579 105.703 75.8862 106.636C81.8373 119.972 92.3871 135.083 106.42 149.204C113.723 156.605 121.331 163.052 128.804 168.373C151.662 184.643 173.37 190.441 182.669 181.061ZM156.666 69.1502C153.488 71.5719 151.696 73.5502 151.29 74.0277C151.222 74.0618 151.155 74.0618 151.121 73.9936L148.145 70.037C148.111 70.0029 148.044 69.9688 147.976 70.037C146.184 71.9812 140.503 79.4169 140.706 88.5581C140.706 88.5922 140.672 88.6263 140.639 88.6604C137.629 89.9225 135.195 91.969 134.755 92.3442C134.721 92.3783 134.721 92.4465 134.755 92.5147C135.026 92.8899 136.344 94.5613 138.441 95.4822C138.508 95.5163 138.542 95.5845 138.508 95.6186C137.562 98.2791 137.393 102.44 137.9 104.282C137.922 104.328 137.956 104.362 138.001 104.385C146.252 106.636 158.424 107.011 164.308 105.578C164.409 105.544 164.477 105.647 164.443 105.715C162.854 110.558 162.583 112.4 162.55 112.878C162.516 112.946 162.583 112.98 162.651 112.98C163.192 112.98 165.424 113.014 166.709 113.287C166.776 113.287 166.81 113.355 166.776 113.423C165.965 116.971 164.409 122.462 164.173 123.315C164.139 123.383 164.173 123.417 164.24 123.451C165.424 123.724 176.143 126.214 186.422 123.69C186.489 123.656 186.591 123.758 186.523 123.827C185.441 126.282 184.562 127.988 184.292 128.568C184.224 128.67 184.325 128.772 184.393 128.738C185.306 128.5 188.755 127.408 193.489 123.076C193.523 123.042 193.523 122.94 193.455 122.906C189.938 120.723 186.625 119.665 186.185 119.529C186.163 119.506 186.14 119.483 186.118 119.461L185.34 117.278C185.306 117.21 185.272 117.175 185.205 117.21L182.297 118.335C182.274 118.358 182.252 118.358 182.229 118.335L176.143 116.766C176.075 116.732 176.041 116.664 176.075 116.596L181.823 106.909C181.891 106.84 181.823 106.738 181.756 106.738L173.911 105.749C173.843 105.749 173.81 105.647 173.843 105.578C174.418 104.726 177.191 100.292 176.887 96.5396C176.853 96.4714 176.92 96.4031 177.022 96.4031C178.104 96.6419 178.712 96.5396 178.881 96.5055C178.904 96.4827 178.927 96.46 178.949 96.4372C179.22 95.9597 181.891 90.9116 183.108 88.6945C183.142 88.5922 183.074 88.4899 183.007 88.524C179.456 89.0356 169.921 88.0806 163.361 85.3519C163.294 85.3519 163.294 85.2837 163.294 85.2495C163.327 84.6697 163.767 83.5782 163.97 83.1348C164.004 83.0325 163.902 82.9642 163.835 82.9642C159.574 84.1581 155.753 86.7844 154.604 87.9441C154.57 87.9782 154.57 88.0806 154.637 88.1147C158.83 90.3318 160.893 91.5256 161.468 91.9008C161.535 91.9349 161.535 92.0372 161.468 92.1054C160.047 92.7876 151.019 97.1194 143.58 99.6094C143.445 99.6776 143.378 99.507 143.479 99.4388C149.024 94.8341 150.952 92.6853 151.932 91.2868C151.966 91.2186 151.932 91.1504 151.898 91.1163C150.411 90.1953 148.28 89.4108 147.739 89.2062C147.672 89.1721 147.638 89.1038 147.672 89.0356C148.45 87.7736 155.043 76.6882 156.869 69.2866C156.869 69.1843 156.768 69.0819 156.666 69.1502ZM103.748 135.39C105.946 137.743 108.246 140.062 110.646 142.28C110.736 142.37 110.827 142.45 110.917 142.518C113.52 144.599 116.462 142.757 118.829 145.281C121.297 147.942 123.935 149.067 125.592 143.678C125.896 142.621 127.316 142.962 127.08 143.883C126.403 146.645 125.49 152.239 125.085 154.286C125.051 154.627 125.152 154.968 125.456 155.173C125.862 155.48 126.2 155.753 126.437 155.923C126.674 156.094 127.012 155.991 127.046 155.684C127.35 153.979 128.263 148.965 129.48 144.19C131.002 138.289 137.595 134.162 143.851 135.526C150.106 136.924 155.449 142.109 161.806 141.12C162.212 141.052 162.629 140.972 163.057 140.881C163.057 140.881 163.057 140.87 163.057 140.847C165.796 139.892 164.714 136.822 162.989 136.754C161.84 136.72 160.419 137.914 161.028 139.414C161.062 139.483 160.994 139.585 160.927 139.551C158.796 139.312 154.468 137.811 150.073 134.4C149.734 134.128 150.005 133.582 150.411 133.684C155.888 135.185 163.835 133.445 167.114 133.275C170.361 133.104 172.897 133.479 174.621 134.128C174.666 134.128 174.7 134.116 174.722 134.093C176.312 132.593 177.698 130.921 178.814 129.216C178.881 129.114 178.814 129.011 178.712 129.011C167.994 130.478 160.183 126.965 157.444 125.907C157.376 125.907 157.376 125.839 157.376 125.771C158.458 122.53 159.743 118.983 160.047 118.165C160.081 118.062 160.014 117.994 159.912 117.994L155.821 118.881C155.753 118.881 155.686 118.847 155.686 118.779C155.686 117.96 155.719 113.935 156.835 111.206C156.869 111.138 156.835 111.036 156.734 111.07C150.546 111.616 138.508 110.49 132.997 109.092C132.963 109.092 132.929 109.058 132.929 108.989C132.895 108.102 132.49 100.053 133.031 97.29C133.031 97.2672 133.019 97.2331 132.997 97.1876C131.171 95.3117 129.142 93.1287 128.736 92.7194C128.703 92.6512 128.703 92.6171 128.736 92.5488C129.21 91.969 132.422 88.0806 135.161 85.5906C135.161 85.5906 135.161 85.5793 135.161 85.5565C136.141 82.6573 136.953 79.7921 137.19 78.9394C137.224 78.8371 137.122 78.7689 137.021 78.803C133.741 80.679 128.026 83.2712 127.147 88.4217C126.234 93.6744 125.659 98.5179 124.882 103.054C124.104 107.625 117.916 113.287 110.274 110.797C102.633 108.307 98.4058 106.124 93.841 106.67C89.6482 107.147 85.151 109.842 84.4748 110.285C84.4071 110.32 84.4071 110.388 84.441 110.422C85.1848 111.616 93.0295 123.861 103.748 135.39ZM72.8768 108.375C73.5982 109.649 74.3195 110.899 75.0409 112.127C75.1761 112.332 75.4804 112.161 75.379 111.923C74.7027 110.604 74.0603 109.308 73.4516 108.034C63.6796 87.5689 62.2594 74.1301 63.781 67.4106C65.0321 61.9873 69.935 59.5656 72.7077 58.6105C72.9106 58.5423 72.843 58.2012 72.6063 58.2353C68.1429 58.6788 61.8537 60.1795 60.535 68.8091C59.0472 78.4278 65.3703 94.8 72.8768 108.375ZM59.6896 156.81C59.7572 156.946 59.9601 156.878 59.9263 156.742C56.173 143.951 59.4529 127.238 59.8925 125.02C59.9263 124.918 59.8249 124.85 59.7234 124.884L52.8593 128.909C51.8788 129.455 51.3716 130.648 51.6759 132.013C51.9802 133.377 52.9946 143.166 59.6896 156.81ZM113.791 169.089C113.859 169.055 113.859 168.953 113.791 168.919L112.134 167.691C112.1 167.657 112.033 167.657 111.999 167.691L103.816 172.432C101.99 173.489 100.435 174.137 98.6763 172.705C96.9181 171.238 88.9043 165.064 82.3445 153.604C76.1905 142.791 74.1955 133.855 73.7898 131.092C73.7898 130.99 73.925 130.921 73.9926 131.024C78.1855 136.788 86.8417 144.326 91.4065 146.168C91.5079 146.202 91.6094 146.066 91.5079 145.963C87.9237 142.893 83.2237 137.095 80.0452 132.797C76.8668 128.534 70.8818 120.006 70.2056 119.086C70.1717 119.017 70.1041 119.017 70.0703 119.051L67.3652 120.62C67.3202 120.643 67.2976 120.677 67.2976 120.723C67.2638 121.712 66.8242 135.287 79.1661 155.889C87.3489 169.532 94.2806 175.502 96.9181 177.48C97.5605 177.957 98.4735 178.026 99.1835 177.616L113.791 169.089ZM173.776 142.893C173.742 142.825 173.674 142.825 173.607 142.859L173.167 143.098C161.704 149.613 156.903 146.475 144.054 141.904C139.895 140.438 135.702 143.678 135.093 147.123C134.755 149.067 133.876 155.241 133.031 159.982C132.963 160.425 133.132 160.903 133.504 161.142C148.923 172.022 162.854 177.923 171.645 177.002C176.413 176.354 177.326 172.602 172.254 171.647C170.158 171.272 168.704 170.522 167.723 169.839C167.182 169.43 167.52 168.543 168.196 168.68C170.327 169.021 173.268 168.714 176.379 165.576C179.964 161.892 179.558 156.366 177.766 151.387C176.684 148.692 175.331 145.861 173.776 142.893Z" />
<path d="M190.682 152.512C192.576 155.684 197.343 160.425 198.966 161.415C198.989 161.437 199.023 161.449 199.068 161.449C200.758 161.79 203.497 160.187 204.309 159.675C204.444 159.607 204.478 159.436 204.41 159.3C204.173 158.822 203.599 157.663 202.686 155.752C202.652 155.684 202.55 155.616 202.449 155.582C196.768 154.866 192.778 152.99 191.088 152.103C190.817 151.932 190.547 152.239 190.682 152.512Z" />
<path d="M168.534 72.8339L176.413 70.0711L180.572 57.5531L168.602 65.4664L168.534 72.8339Z" />
</svg>
